<svg width="55" height="55" viewBox="0 0 55 55" fill="none" xmlns="http://www.w3.org/2000/svg">
<path d="M26.3538 32.0832C21.9393 32.0832 18.333 28.493 18.333 24.052C18.333 19.6109 21.9393 16.0415 26.3538 16.0415C30.7684 16.0415 34.3747 19.6317 34.3747 24.0727C34.3747 28.5137 30.7684 32.0832 26.3538 32.0832ZM26.3538 19.1544C23.6595 19.1544 21.4419 21.3541 21.4419 24.0727C21.4419 26.7913 23.6388 28.9911 26.3538 28.9911C29.0689 28.9911 31.2658 26.7913 31.2658 24.0727C31.2658 21.3541 29.0482 19.1544 26.3538 19.1544Z" fill="#EEEEEE"/>
<path d="M26.3477 50.4168C23.2742 50.4168 20.1799 49.2236 17.7709 46.8584C11.6445 40.807 4.87436 31.1545 7.42874 19.6695C9.73391 9.24993 18.6015 4.5835 26.3477 4.5835C26.3477 4.5835 26.3477 4.5835 26.3685 4.5835C34.1147 4.5835 42.9824 9.24993 45.2875 19.6908C47.8211 31.1758 41.051 40.807 34.9246 46.8584C32.5156 49.2236 29.4213 50.4168 26.3477 50.4168ZM26.3477 7.77968C20.3045 7.77968 12.5375 11.0824 10.4815 20.3727C8.23867 30.4087 14.3858 39.0597 19.9514 44.5358C23.5442 48.0943 29.1721 48.0943 32.7648 44.5358C38.3097 39.0597 44.4568 30.4087 42.2555 20.3727C40.1788 11.0824 32.391 7.77968 26.3477 7.77968Z" fill="#EEEEEE"/>
</svg>
