<svg width="31" height="30" viewBox="0 0 31 30" fill="none" xmlns="http://www.w3.org/2000/svg">
<path d="M18.5379 23.5249C18.3004 23.5249 18.0629 23.4374 17.8754 23.2499C17.5129 22.8874 17.5129 22.2874 17.8754 21.9249L24.8004 14.9999L17.8754 8.0749C17.5129 7.7124 17.5129 7.1124 17.8754 6.7499C18.2379 6.3874 18.8379 6.3874 19.2004 6.7499L26.7879 14.3374C27.1504 14.6999 27.1504 15.2999 26.7879 15.6624L19.2004 23.2499C19.0129 23.4374 18.7754 23.5249 18.5379 23.5249Z" fill="url(#paint0_linear_4089_9898)"/>
<path d="M25.9125 15.9375H4.875C4.3625 15.9375 3.9375 15.5125 3.9375 15C3.9375 14.4875 4.3625 14.0625 4.875 14.0625H25.9125C26.425 14.0625 26.85 14.4875 26.85 15C26.85 15.5125 26.425 15.9375 25.9125 15.9375Z" fill="url(#paint1_linear_4089_9898)"/>
<defs>
<linearGradient id="paint0_linear_4089_9898" x1="22.3316" y1="6.47803" x2="22.3316" y2="23.5249" gradientUnits="userSpaceOnUse">
<stop stop-color="#FF5757"/>
<stop offset="1" stop-color="#F12633"/>
</linearGradient>
<linearGradient id="paint1_linear_4089_9898" x1="15.3938" y1="14.0625" x2="15.3938" y2="15.9375" gradientUnits="userSpaceOnUse">
<stop stop-color="#FF5757"/>
<stop offset="1" stop-color="#F12633"/>
</linearGradient>
</defs>
</svg>
