<svg width="36" height="36" viewBox="0 0 36 36" fill="none" xmlns="http://www.w3.org/2000/svg">
<path d="M21.6447 28.2301C21.3597 28.2301 21.0747 28.1251 20.8497 27.9001C20.4147 27.4651 20.4147 26.7451 20.8497 26.3101L29.1597 18.0001L20.8497 9.69005C20.4147 9.25505 20.4147 8.53505 20.8497 8.10005C21.2847 7.66505 22.0047 7.66505 22.4397 8.10005L31.5447 17.2051C31.9797 17.6401 31.9797 18.3601 31.5447 18.7951L22.4397 27.9001C22.2147 28.1251 21.9297 28.2301 21.6447 28.2301Z" fill="#FF5757"/>
<path d="M30.495 19.125H5.25C4.635 19.125 4.125 18.615 4.125 18C4.125 17.385 4.635 16.875 5.25 16.875H30.495C31.11 16.875 31.62 17.385 31.62 18C31.62 18.615 31.11 19.125 30.495 19.125Z" fill="#FF5757"/>
</svg>
