<svg width="25" height="24" viewBox="0 0 25 24" fill="none" xmlns="http://www.w3.org/2000/svg">
<path d="M18.826 7.90977C18.796 7.90977 18.776 7.90977 18.746 7.90977H18.696C16.806 7.84977 15.396 6.38977 15.396 4.58977C15.396 2.74977 16.896 1.25977 18.726 1.25977C20.556 1.25977 22.056 2.75977 22.056 4.58977C22.046 6.39977 20.636 7.85977 18.836 7.91977C18.836 7.90977 18.836 7.90977 18.826 7.90977ZM18.726 2.74977C17.716 2.74977 16.896 3.56977 16.896 4.57977C16.896 5.56977 17.666 6.36977 18.656 6.40977C18.666 6.39977 18.746 6.39977 18.836 6.40977C19.806 6.35977 20.556 5.55977 20.566 4.57977C20.566 3.56977 19.746 2.74977 18.726 2.74977Z" fill="white"/>
<path d="M18.8362 15.2801C18.4462 15.2801 18.0562 15.2501 17.6662 15.1801C17.2562 15.1101 16.9862 14.7201 17.0562 14.3101C17.1262 13.9001 17.5162 13.6301 17.9262 13.7001C19.1562 13.9101 20.4562 13.6802 21.3262 13.1002C21.7962 12.7902 22.0462 12.4001 22.0462 12.0101C22.0462 11.6201 21.7862 11.2401 21.3262 10.9301C20.4562 10.3501 19.1362 10.1201 17.8962 10.3401C17.4862 10.4201 17.0962 10.1401 17.0262 9.73015C16.9562 9.32015 17.2262 8.93015 17.6362 8.86015C19.2662 8.57015 20.9562 8.88014 22.1562 9.68014C23.0362 10.2701 23.5462 11.1101 23.5462 12.0101C23.5462 12.9001 23.0462 13.7502 22.1562 14.3502C21.2462 14.9502 20.0662 15.2801 18.8362 15.2801Z" fill="white"/>
<path d="M6.79615 7.91C6.78615 7.91 6.77615 7.91 6.77615 7.91C4.97615 7.85 3.56615 6.39 3.55615 4.59C3.55615 2.75 5.05615 1.25 6.88615 1.25C8.71615 1.25 10.2162 2.75 10.2162 4.58C10.2162 6.39 8.80615 7.85 7.00615 7.91L6.79615 7.16L6.86615 7.91C6.84615 7.91 6.81615 7.91 6.79615 7.91ZM6.89615 6.41C6.95615 6.41 7.00615 6.41 7.06615 6.42C7.95615 6.38 8.73615 5.58 8.73615 4.59C8.73615 3.58 7.91615 2.75999 6.90615 2.75999C5.89615 2.75999 5.07615 3.58 5.07615 4.59C5.07615 5.57 5.83615 6.36 6.80615 6.42C6.81615 6.41 6.85615 6.41 6.89615 6.41Z" fill="white"/>
<path d="M6.78617 15.2801C5.55617 15.2801 4.37617 14.9502 3.46617 14.3502C2.58617 13.7602 2.07617 12.9101 2.07617 12.0101C2.07617 11.1201 2.58617 10.2701 3.46617 9.68014C4.66617 8.88014 6.35617 8.57015 7.98617 8.86015C8.39617 8.93015 8.66617 9.32015 8.59617 9.73015C8.52617 10.1401 8.13617 10.4201 7.72617 10.3401C6.48617 10.1201 5.17617 10.3501 4.29617 10.9301C3.82617 11.2401 3.57617 11.6201 3.57617 12.0101C3.57617 12.4001 3.83617 12.7902 4.29617 13.1002C5.16617 13.6802 6.46617 13.9101 7.69617 13.7001C8.10617 13.6301 8.49617 13.9101 8.56617 14.3101C8.63617 14.7201 8.36617 15.1101 7.95617 15.1801C7.56617 15.2501 7.17617 15.2801 6.78617 15.2801Z" fill="white"/>
<path d="M12.826 15.38C12.796 15.38 12.776 15.38 12.746 15.38H12.696C10.806 15.32 9.396 13.86 9.396 12.06C9.396 10.22 10.896 8.72998 12.726 8.72998C14.556 8.72998 16.056 10.23 16.056 12.06C16.046 13.87 14.636 15.33 12.836 15.39C12.836 15.38 12.836 15.38 12.826 15.38ZM12.726 10.22C11.716 10.22 10.896 11.04 10.896 12.05C10.896 13.04 11.666 13.84 12.656 13.88C12.666 13.87 12.746 13.87 12.836 13.88C13.806 13.83 14.556 13.03 14.566 12.05C14.566 11.05 13.746 10.22 12.726 10.22Z" fill="white"/>
<path d="M12.826 22.7597C11.626 22.7597 10.426 22.4497 9.49596 21.8197C8.61596 21.2297 8.10596 20.3897 8.10596 19.4897C8.10596 18.5997 8.60596 17.7397 9.49596 17.1497C11.366 15.9097 14.296 15.9097 16.156 17.1497C17.036 17.7397 17.546 18.5797 17.546 19.4797C17.546 20.3697 17.046 21.2297 16.156 21.8197C15.226 22.4397 14.026 22.7597 12.826 22.7597ZM10.326 18.4097C9.85596 18.7197 9.60596 19.1097 9.60596 19.4997C9.60596 19.8897 9.86596 20.2697 10.326 20.5797C11.676 21.4897 13.966 21.4897 15.316 20.5797C15.786 20.2697 16.036 19.8797 16.036 19.4897C16.036 19.0997 15.776 18.7197 15.316 18.4097C13.976 17.4997 11.686 17.5097 10.326 18.4097Z" fill="white"/>
</svg>
