<svg width="103" height="75" viewBox="0 0 103 75" fill="none" xmlns="http://www.w3.org/2000/svg">
<path d="M102.215 0.715118C100.397 8.38909 98.4788 16.6689 96.4593 25.5546C94.4399 34.4402 92.6223 43.1239 91.0068 51.6057C89.3912 60.0874 88.0785 67.8624 87.0688 74.9305H58.2914L56.171 71.5984C57.9885 64.5303 60.3109 56.9573 63.1381 48.8794C65.9654 40.5996 69.0955 32.3198 72.5286 24.04C75.9617 15.7601 79.2939 7.9852 82.525 0.715118H102.215ZM46.1746 0.715118C44.3571 8.38909 42.4386 16.6689 40.4191 25.5546C38.3997 34.4402 36.5821 43.1239 34.9666 51.6057C33.351 60.0874 32.0383 67.8624 31.0286 74.9305H2.55412L0.736602 71.5984C2.55412 64.5303 4.87651 56.9573 7.70376 48.8794C10.531 40.5996 13.5602 32.3198 16.7914 24.04C20.2245 15.7601 23.5566 7.9852 26.7877 0.715118H46.1746Z" fill="url(#paint0_linear_4117_3101)"/>
<defs>
<linearGradient id="paint0_linear_4117_3101" x1="62.0611" y1="-31" x2="62.0611" y2="150.752" gradientUnits="userSpaceOnUse">
<stop stop-color="#FF5757"/>
<stop offset="1" stop-color="#F12633"/>
</linearGradient>
</defs>
</svg>
