<svg width="36" height="36" viewBox="0 0 36 36" fill="none" xmlns="http://www.w3.org/2000/svg">
<path d="M13.3577 35.9996C12.9541 35.9996 12.6245 35.7548 12.3257 35.4548C10.7691 33.8939 9.21305 32.3322 7.65764 30.7697C5.31972 28.4264 2.98243 26.0815 0.645769 23.7352C0.448531 23.5362 0.295964 23.2974 0.198229 23.0347C0.0369134 22.5841 0.213918 22.1911 0.540943 21.8635C1.43351 20.9697 2.3267 20.0767 3.22053 19.1845C3.476 18.9291 3.72268 18.6667 3.98631 18.4187C4.48344 17.948 4.97679 17.84 5.50342 18.0974C5.64789 18.1747 5.77872 18.2752 5.89071 18.3949C8.31776 20.8165 10.7427 23.24 13.1656 25.6654C13.3985 25.8983 13.3991 25.8983 13.6332 25.6654L28.7604 10.5382C28.9883 10.3109 29.2074 10.0743 29.444 9.85711C29.9694 9.37505 30.5437 9.36061 31.0961 9.81004C31.2413 9.92968 31.3805 10.0566 31.5128 10.1904C32.5619 11.2386 33.6097 12.2879 34.6563 13.3383C35.1917 13.8756 35.2626 14.4398 34.7925 15.038C34.4416 15.4862 34.0211 15.8816 33.6168 16.2859C29.0695 20.8366 24.5204 25.3854 19.9697 29.9324C18.2724 31.6301 16.5791 33.3319 14.8898 35.038C14.7128 35.2156 14.549 35.4052 14.3726 35.5834C14.2412 35.719 14.0833 35.8259 13.9086 35.8975C13.7339 35.9691 13.5464 36.0039 13.3577 35.9996ZM33.8635 14.2923C33.7957 14.2183 33.7417 14.1536 33.6827 14.094C32.6238 13.0326 31.5612 11.9762 30.5104 10.9079C30.3441 10.739 30.2556 10.7604 30.1018 10.916C29.1038 11.9266 28.0932 12.9278 27.0889 13.932C22.7064 18.3166 18.3241 22.7008 13.942 27.0846C13.5579 27.4693 13.2478 27.4825 12.8913 27.126C10.6546 24.8906 8.41882 22.6544 6.18384 20.4173C5.8292 20.062 5.48396 19.698 5.1356 19.3358C5.01759 19.2134 4.92595 19.1964 4.78911 19.3358C3.71326 20.4236 2.62925 21.5038 1.54837 22.5866C1.49565 22.6393 1.4492 22.6989 1.39648 22.7598C1.45109 22.8195 1.48561 22.8609 1.52202 22.8992C5.41367 26.7992 9.30281 30.7 13.1894 34.6017C13.3501 34.7631 13.4405 34.7624 13.5974 34.6017C14.9963 33.1823 16.4007 31.7682 17.8105 30.3592C23.0751 25.0929 28.3407 19.8277 33.6074 14.5635C33.6947 14.4775 33.7713 14.3915 33.8635 14.2923Z" fill="#303030"/>
<path d="M13.4662 0C15.5375 0.114867 17.1143 1.052 18.15 2.87919C18.3314 3.19931 18.2203 3.54768 17.9039 3.72657C17.5876 3.90546 17.2762 3.81382 17.0879 3.48178C16.4113 2.28603 15.4108 1.5303 14.0537 1.28487C13.0017 1.09657 12.0269 1.33948 11.1513 1.93328C9.91662 2.77061 9.23307 3.93183 9.2883 5.44329C9.35107 7.17382 10.3962 9.05249 12.6671 9.41341C14.3167 9.67515 15.7114 9.1366 16.7509 7.78958C17.0302 7.42804 17.2806 7.33012 17.6108 7.47574C17.9874 7.63894 18.0985 7.98228 17.8719 8.31935C17.4878 8.89556 16.9979 9.39374 16.4282 9.78751C15.5111 10.4339 14.4058 10.7588 13.2848 10.7115C10.5506 10.6066 8.55831 8.74429 8.13776 6.18773C7.64816 3.19994 9.73773 0.551739 12.5774 0.0816022C12.8636 0.0313874 13.1549 0.0269905 13.4662 0Z" fill="#303030"/>
<path d="M13.4186 12.1206C14.4072 12.1206 15.3958 12.1168 16.3844 12.1206C16.8389 12.1206 17.2726 12.2028 17.6185 12.5418C17.7656 12.6778 17.883 12.8428 17.9631 13.0265C18.0433 13.2102 18.0845 13.4084 18.0842 13.6088C18.0842 15.5157 18.0842 17.4224 18.0842 19.3289C18.0842 19.8311 17.69 20.1085 17.2249 19.9378C16.9858 19.8505 16.8571 19.6321 16.8546 19.29C16.8546 18.7094 16.8546 18.1288 16.8546 17.5482V13.8053C16.8546 13.418 16.7868 13.3477 16.4095 13.3477C14.4089 13.3477 12.408 13.3477 10.407 13.3477C10.0247 13.3477 9.95442 13.4161 9.95442 13.8015C9.95442 15.598 9.95442 17.3948 9.95442 19.1921C9.95442 19.2938 9.95443 19.3961 9.95066 19.4978C9.93308 19.8556 9.69958 20.0809 9.34745 20.079C8.99532 20.0771 8.75491 19.8443 8.75429 19.489C8.75052 17.5513 8.74236 15.613 8.75429 13.6754C8.76182 12.5236 9.4485 12.1495 10.3361 12.1237C11.3636 12.0936 12.3917 12.1168 13.4199 12.1168L13.4186 12.1206Z" fill="#303030"/>
<path d="M18.7822 5.31841C18.7194 5.66301 18.6723 6.00887 18.5939 6.35096C18.5154 6.69305 18.1865 6.91587 17.8796 6.84243C17.5356 6.76272 17.3529 6.46582 17.4082 6.09611C17.4613 5.7421 17.5101 5.38641 17.5544 5.02905C17.5755 4.88122 17.6485 4.74573 17.7604 4.64691C17.8724 4.54809 18.0159 4.49241 18.1652 4.48987C18.3153 4.49388 18.4585 4.55419 18.5663 4.65883C18.6741 4.76347 18.7386 4.9048 18.747 5.05479C18.7514 5.14078 18.747 5.22677 18.747 5.31276L18.7822 5.31841Z" fill="#303030"/>
</svg>
