<svg width="36" height="36" viewBox="0 0 36 36" fill="none" xmlns="http://www.w3.org/2000/svg">
<path d="M0.0149057 17.9606C0.0149057 14.147 -0.0272904 10.332 0.0303088 6.5191C0.0691548 3.93919 1.38322 2.06721 3.59878 0.814095C4.60342 0.247479 5.69847 0.0103847 6.8451 0.0063662C14.3317 0.0063662 21.8182 -0.0117148 29.3048 0.0130662C32.3582 0.0231126 35.0701 2.07927 35.788 5.02688C35.9175 5.57012 35.9822 6.12676 35.9809 6.6852C35.9921 14.2798 35.9921 21.8742 35.9809 29.4684C35.9749 32.1829 34.0674 34.7822 31.312 35.6583C30.5789 35.8893 29.8142 36.0046 29.0456 35.9999C21.5845 35.9958 14.1231 35.9958 6.66159 35.9999C3.67246 35.9999 0.986055 33.9129 0.231907 31.0128C0.0637974 30.3685 0.0195952 29.7155 0.0202649 29.0531C0.022944 25.357 0.022944 21.6601 0.0202649 17.9626L0.0149057 17.9606ZM25.8006 14.0438C25.8435 14.159 25.8642 14.2287 25.895 14.2937C26.6592 15.9379 26.9144 17.6518 26.599 19.4428C26.2098 21.6456 25.1195 23.4345 23.3707 24.8162C22.061 25.8589 20.4713 26.4894 18.803 26.6279C17.7532 26.7273 16.694 26.6312 15.6792 26.3446C14.1228 25.9115 12.721 25.046 11.6366 23.8484C10.3211 22.4145 9.5603 20.7227 9.37746 18.7924C9.23585 17.2875 9.47827 15.7712 10.082 14.3854C10.1256 14.2843 10.149 14.1764 10.2006 14.0258H2.35102C2.10053 14.0258 1.84938 14.0258 1.59822 14.0258C1.27941 14.0258 1.26334 14.0425 1.26334 14.3707C1.26334 14.4464 1.26334 14.5214 1.26334 14.5964C1.26334 18.8627 1.26334 23.1289 1.26334 27.3948C1.26334 28.0967 1.26869 28.8013 1.29548 29.5012C1.34772 30.8916 1.89425 32.0744 2.86674 33.0583C3.99394 34.1969 5.3924 34.6751 6.97169 34.6751C14.2578 34.6751 21.5443 34.6751 28.8313 34.6751C29.2573 34.6816 29.683 34.6514 30.1038 34.5847C32.2202 34.2176 33.6823 33.0241 34.4693 31.0269C34.7499 30.3156 34.7466 29.5742 34.7372 28.806C34.6957 24.0045 34.7158 19.203 34.7158 14.4015C34.7158 14.0298 34.7158 14.0284 34.3487 14.0284H26.1449C26.0464 14.0264 25.948 14.0365 25.7999 14.0445L25.8006 14.0438ZM34.7004 12.7545C34.7071 12.6541 34.7158 12.5885 34.7158 12.5235C34.7158 10.5249 34.7211 8.52569 34.7091 6.52713C34.7027 6.20218 34.6602 5.87893 34.5825 5.56335C33.9797 2.99684 31.7889 1.2769 29.1166 1.27154C23.6214 1.26529 18.1263 1.26529 12.6311 1.27154C12.2869 1.27154 12.2862 1.27154 12.2862 1.61713C12.2862 3.57417 12.2862 5.53121 12.2862 7.48824C12.2862 7.96578 12.0565 8.19417 11.581 8.19483H6.91342C6.31064 8.19483 6.10569 7.99391 6.10569 7.38376C6.10569 5.44369 6.10569 3.5034 6.10569 1.56288V1.2414C6.05181 1.23363 5.99736 1.23049 5.94294 1.23202C3.29337 1.64058 1.31625 3.9191 1.26468 6.55527C1.22583 8.51163 1.25932 10.4693 1.26468 12.4257C1.26468 12.7552 1.26468 12.7559 1.59956 12.7559C4.56056 12.7559 7.52156 12.7505 10.4819 12.7626C10.8402 12.7626 11.1336 12.7251 11.3258 12.3822C11.3928 12.2616 11.5113 12.1678 11.6118 12.068C14.2185 9.48546 17.2779 8.65228 20.7982 9.75939C22.354 10.249 23.6507 11.1766 24.7035 12.4257C24.9045 12.6621 25.1 12.7659 25.4202 12.7639C28.3973 12.7499 31.375 12.7559 34.3528 12.7559L34.7004 12.7545ZM17.9564 25.3989C21.9569 25.4123 25.4296 22.1794 25.451 18.0624C25.4724 13.8603 22.1966 10.6153 18.0167 10.606C13.8642 10.5973 10.6252 13.8824 10.6065 17.9733C10.5958 22.0816 13.9754 25.4197 17.9611 25.3989H17.9564ZM11.0237 4.13945C11.0237 3.27881 11.0177 2.41817 11.0277 1.5582C11.0277 1.34387 10.9695 1.2635 10.7451 1.26551C9.71814 1.27533 8.69118 1.27533 7.66422 1.26551C7.44655 1.26551 7.37287 1.33249 7.37354 1.55284C7.38024 3.27412 7.38024 4.99517 7.37354 6.71601C7.37354 6.92363 7.44052 6.98793 7.64747 6.98391C8.68359 6.9752 9.71971 6.97252 10.7558 6.98391C10.9896 6.98391 11.0318 6.89885 11.0298 6.6919C11.0184 5.84398 11.0237 4.99138 11.0237 4.13945Z" fill="#303030"/>
<path d="M28.4327 6.14865C28.4391 5.76524 28.5969 5.39992 28.8717 5.13249C29.1465 4.86507 29.516 4.71727 29.8995 4.7214C30.0859 4.72209 30.2703 4.75968 30.442 4.83199C30.6138 4.9043 30.7696 5.00991 30.9003 5.14272C31.0311 5.27553 31.1342 5.43291 31.2039 5.60579C31.2735 5.77867 31.3082 5.96363 31.306 6.14999C31.2933 7.1352 30.5646 7.6114 29.8499 7.59399C29.6619 7.5925 29.4759 7.5539 29.3028 7.48039C29.1297 7.40688 28.9728 7.29992 28.8412 7.16564C28.7095 7.03135 28.6056 6.87239 28.5355 6.69787C28.4654 6.52335 28.4305 6.33671 28.4327 6.14865Z" fill="#303030"/>
</svg>
