<svg width="52" height="36" viewBox="0 0 52 36" fill="none" xmlns="http://www.w3.org/2000/svg">
<path d="M25.8455 0.00740708C31.352 0.00740708 36.8585 -0.0146897 42.365 0.0174475C45.0233 0.033516 47.2097 1.16133 48.938 3.15584C50.4153 4.86313 51.1184 6.8717 51.1194 9.12732C51.1194 15.1601 51.1726 21.1938 51.0963 27.2256C51.0541 30.5397 49.4191 33.0363 46.6121 34.7577C45.1449 35.6555 43.5179 36.001 41.8016 36C31.0651 35.9933 20.328 35.9933 9.59014 36C5.20744 36 1.37308 32.7421 0.691168 28.4237C0.614471 27.8781 0.580891 27.3274 0.590739 26.7766C0.582705 20.769 0.536507 14.7604 0.601785 8.75272C0.638944 5.43256 2.27191 2.94193 5.07789 1.22058C6.49895 0.34886 8.06865 -0.00063015 9.73877 0.00439128C15.1067 0.0214641 20.4756 0.0104167 25.8445 0.0104167L25.8455 0.00740708ZM25.8977 1.90149C20.4806 1.90149 15.0628 1.89982 9.64437 1.89647C8.3167 1.89647 7.08043 2.19775 5.96567 2.90075C3.75624 4.2947 2.50692 6.28318 2.49888 8.9355C2.4798 14.9421 2.49185 20.9488 2.49888 26.9564C2.49955 27.2924 2.52371 27.628 2.57119 27.9607C2.81452 29.6573 3.66084 31.2095 4.95519 32.3331C6.24954 33.4566 7.90529 34.0764 9.61926 34.0788C20.4307 34.0788 31.2415 34.0758 42.0517 34.0698C42.6768 34.0641 43.299 33.9828 43.9046 33.8277C46.9857 33.0534 49.2273 30.1621 49.2273 26.9825C49.2313 21.1135 49.2293 15.2448 49.2213 9.37638C49.2192 8.78866 49.1681 8.20214 49.0686 7.6229C48.5223 4.43329 45.5004 1.89847 42.2706 1.89847C36.8106 1.89914 31.3527 1.90015 25.8967 1.90149H25.8977Z" fill="#303030"/>
<path d="M19.042 17.2118C19.042 15.2032 19.042 13.1947 19.042 11.1921C19.042 9.9669 19.7451 8.97266 20.8076 8.67439C21.1387 8.57388 21.487 8.54331 21.8306 8.58463C22.1741 8.62595 22.5053 8.73826 22.8031 8.91441C26.3402 10.9591 29.8756 13.0075 33.4094 15.0596C34.8154 15.8781 35.205 17.4227 34.3192 18.6811C34.0876 18.992 33.7938 19.2512 33.4566 19.4423C29.9081 21.5179 26.3509 23.579 22.785 25.6257C21.0205 26.638 19.0692 25.4349 19.04 23.346V17.2118H19.042ZM20.9502 17.265C20.9502 19.2334 20.9673 21.2008 20.9412 23.1692C20.9321 23.8722 21.3168 24.3091 22.075 23.8542C24.2563 22.5486 26.4708 21.2962 28.6711 20.0218C29.9396 19.2877 31.211 18.5586 32.4744 17.8124C33.0167 17.493 33.0056 17.0471 32.4683 16.7167C32.3679 16.6585 32.2755 16.6012 32.1781 16.544L24.9533 12.3742C23.9329 11.7857 22.9166 11.1921 21.8912 10.6127C21.4001 10.3355 21.0325 10.5343 20.9622 11.0957C20.95 11.2329 20.9463 11.3708 20.9512 11.5085C20.9519 13.4287 20.9522 15.3475 20.9522 17.265H20.9502Z" fill="#303030"/>
</svg>
