<svg width="25" height="36" viewBox="0 0 25 36" fill="none" xmlns="http://www.w3.org/2000/svg">
<path d="M24.5387 12.041C24.3961 12.6799 24.2713 13.2688 24.1334 13.8563C23.838 15.1152 23.5247 16.372 23.2489 17.6336C23.1973 17.87 23.0538 17.8936 22.7874 17.893C20.7379 17.8882 18.6884 17.893 16.6379 17.893C16.1332 17.893 16.1323 17.893 16.1323 18.259V35.6157C16.1323 36 16.1323 36 15.6014 36H6.88646C6.42215 36 6.41746 36 6.41746 35.6684V18.2847C6.41746 17.8916 6.41746 17.8909 5.85466 17.8909C4.367 17.8909 2.87933 17.8855 1.39167 17.895C1.08775 17.895 0.988326 17.8356 0.989264 17.61C1.00115 15.8464 1.00115 14.0835 0.989264 12.3212C0.989264 12.093 1.09432 12.0362 1.39448 12.0376C2.91685 12.047 4.44016 12.0376 5.96253 12.0464C6.30302 12.0464 6.43153 11.9883 6.42496 11.7222C6.40527 10.5498 6.38838 9.37736 6.42496 8.20561C6.45873 7.10342 6.58442 6.00596 7.01215 4.93755C7.97829 2.54002 10.2164 1.10624 13.5125 0.464647C14.7649 0.21886 16.054 0.0828043 17.3517 0.0594319C19.6207 0.0209365 21.8907 0.0236376 24.1606 0C24.457 0 24.5696 0.0472754 24.5677 0.278924C24.5558 2.05872 24.5558 3.83851 24.5677 5.61831C24.5677 5.8324 24.4739 5.88845 24.185 5.88845C22.5904 5.88035 20.9958 5.90399 19.4012 5.87967C17.3198 5.84793 16.1755 6.99672 16.137 8.21709C16.1004 9.37263 16.1286 10.5282 16.1286 11.6837C16.1286 12.0356 16.1286 12.0389 16.6144 12.0389H24.5349L24.5387 12.041Z" fill="#303030"/>
</svg>
